<svg id="Layer_1" data-name="Layer 1" xmlns="http://www.w3.org/2000/svg" viewBox="0 0 337.87 86.49"><defs><style>.cls-1{fill:#5940c3;}.cls-2{fill:#968bff;}</style></defs><title>one_span-logo-desktop</title><path class="cls-1" d="M65.34,39.49a32.57,32.57,0,0,0-32.08-27,21.57,21.57,0,0,0-21.6,21.6,21.21,21.21,0,0,0,.73,5.54,21.63,21.63,0,0,1,41.73,0,20.92,20.92,0,0,1,.73,5.55A21.56,21.56,0,0,1,33.26,66.75,32.66,32.66,0,0,1,8.53,55.42,32,32,0,0,1,1.17,39.74a28.1,28.1,0,0,1-.48-5.55V45.28a32.22,32.22,0,0,0,4.1,15.93,32.73,32.73,0,0,0,57.9-1.45,32.37,32.37,0,0,0,3.37-14.48C65.82,43.11,65.7,41.3,65.34,39.49Z" transform="translate(-0.57 -1.26)"/><path class="cls-2" d="M64.13,23.45A32.63,32.63,0,0,0,.57,34a28,28,0,0,0,.48,5.54A32.08,32.08,0,0,0,8.41,55.18,32.44,32.44,0,0,0,33.13,66.51a21.57,21.57,0,0,0,21.6-21.59A20.92,20.92,0,0,0,54,39.37a21.63,21.63,0,0,1-41.73,0,20.92,20.92,0,0,1-.73-5.55A21.57,21.57,0,0,1,33.13,12.23a32.55,32.55,0,0,1,24.49,11.1,32.11,32.11,0,0,1,7.6,15.92,28.1,28.1,0,0,1,.48,5.55V33.7A29.35,29.35,0,0,0,64.13,23.45Z" transform="translate(-0.57 -1.26)"/><path class="cls-1" d="M176.68,75.08A2.94,2.94,0,0,1,178,77.49a3,3,0,0,1-.6,1.81,3.53,3.53,0,0,1-1.69,1.09,3.24,3.24,0,0,1,2,1.2,3.39,3.39,0,0,1,.73,2.17,3.23,3.23,0,0,1-1.33,2.66,6.46,6.46,0,0,1-3.62,1h-6.39V74.11h6.15A6.54,6.54,0,0,1,176.68,75.08Zm-2.3,4.1a1.45,1.45,0,0,0,0-2.17,2.16,2.16,0,0,0-1.32-.36h-3v2.89h3A1.93,1.93,0,0,0,174.38,79.18Zm.37,5.43a1.5,1.5,0,0,0,.6-1.21,1.26,1.26,0,0,0-.6-1.08,3.14,3.14,0,0,0-1.69-.37h-3v3.14h3A4.83,4.83,0,0,0,174.75,84.61Z" transform="translate(-0.57 -1.26)"/><path class="cls-1" d="M188.26,78.58a5.87,5.87,0,0,1,1.32,4v.72h-7.36a2.12,2.12,0,0,0,1,1.45,2.77,2.77,0,0,0,1.69.48A4.31,4.31,0,0,0,186.2,85a4.06,4.06,0,0,0,1.21-.85L189,85.69A4.24,4.24,0,0,1,187.05,87a5.42,5.42,0,0,1-2.41.48,6.35,6.35,0,0,1-2.78-.6,4.38,4.38,0,0,1-1.81-1.81,4.81,4.81,0,0,1-.6-2.65,6.76,6.76,0,0,1,.6-2.78,4.43,4.43,0,0,1,1.81-1.81,5.28,5.28,0,0,1,2.78-.6A4.27,4.27,0,0,1,188.26,78.58Zm-1.45,3A2.08,2.08,0,0,0,186.2,80a2.34,2.34,0,0,0-3.13,0,2.57,2.57,0,0,0-.85,1.57Z" transform="translate(-0.57 -1.26)"/><path class="cls-1" d="M203.7,77.85a4.84,4.84,0,0,1,1.68,1.81,6.61,6.61,0,0,1,.61,2.78,6,6,0,0,1-.61,2.65,4.84,4.84,0,0,1-1.68,1.81,4.44,4.44,0,0,1-2.54.6,5.06,5.06,0,0,1-1.93-.36,4.58,4.58,0,0,1-1.45-1.21v1.45h-2.89v-14h2.89V78.7a4.2,4.2,0,0,1,1.33-1.21,4.87,4.87,0,0,1,1.81-.36A4.77,4.77,0,0,1,203.7,77.85Zm-1.33,6.52a2.86,2.86,0,0,0,.72-2.05,3.08,3.08,0,0,0-.72-2.06,2.57,2.57,0,0,0-1.81-.84,2.18,2.18,0,0,0-1.81.84,3.29,3.29,0,0,0,0,4.11,2.47,2.47,0,0,0,1.81.72A2.08,2.08,0,0,0,202.37,84.37Z" transform="translate(-0.57 -1.26)"/><path class="cls-1" d="M214.91,77.85a5.53,5.53,0,0,1,1.93,1.81,5,5,0,0,1,.73,2.78,5.52,5.52,0,0,1-.73,2.77A4,4,0,0,1,214.91,87a5.69,5.69,0,0,1-2.89.6,7.35,7.35,0,0,1-2.9-.6,5.7,5.7,0,0,1-1.93-1.81,5.71,5.71,0,0,1,0-5.55,4.74,4.74,0,0,1,1.93-1.81,5.73,5.73,0,0,1,2.9-.6A4.68,4.68,0,0,1,214.91,77.85Zm-4.7,2.54a2.83,2.83,0,0,0-.72,2,2.86,2.86,0,0,0,.72,2,2.45,2.45,0,0,0,1.81.72,2.48,2.48,0,0,0,1.81-.72,2.86,2.86,0,0,0,.72-2,2.83,2.83,0,0,0-.72-2,2.45,2.45,0,0,0-1.81-.73A2.42,2.42,0,0,0,210.21,80.39Z" transform="translate(-0.57 -1.26)"/><path class="cls-1" d="M218.89,73.39h2.9V87.5h-2.9Z" transform="translate(-0.57 -1.26)"/><path class="cls-1" d="M234.21,73.39V87.5h-2.89V86.05A4.1,4.1,0,0,1,230,87.26a4.87,4.87,0,0,1-1.81.36,5.62,5.62,0,0,1-2.53-.6A4.79,4.79,0,0,1,224,85.21a6.71,6.71,0,0,1-.6-2.77,6.2,6.2,0,0,1,.6-2.66A4.06,4.06,0,0,1,225.65,78a4.41,4.41,0,0,1,2.53-.6,3.61,3.61,0,0,1,3.26,1.57V73.39Zm-3.62,11.1a2.83,2.83,0,0,0,.73-2,2.79,2.79,0,0,0-.73-2,2.53,2.53,0,0,0-1.81-.85,2.14,2.14,0,0,0-1.8.85,2.79,2.79,0,0,0-.73,2,2.83,2.83,0,0,0,.73,2,2.55,2.55,0,0,0,1.8.84A3.15,3.15,0,0,0,230.59,84.49Z" transform="translate(-0.57 -1.26)"/><path class="cls-1" d="M238.31,85.09a1.78,1.78,0,0,1,0,2.17,1.52,1.52,0,0,1-1.08.48,1.49,1.49,0,0,1-1.09-.48,1.82,1.82,0,0,1,0-2.17,1.49,1.49,0,0,1,1.09-.36A.91.91,0,0,1,238.31,85.09Z" transform="translate(-0.57 -1.26)"/><path class="cls-1" d="M254,75.08a2.92,2.92,0,0,1,1.33,2.41,3,3,0,0,1-.6,1.81A3.53,3.53,0,0,1,253,80.39a3.27,3.27,0,0,1,2.05,1.2,3.38,3.38,0,0,1,.72,2.17,3.22,3.22,0,0,1-1.32,2.66,6.46,6.46,0,0,1-3.62,1h-6.27V74.11h6.15A6.4,6.4,0,0,1,254,75.08Zm-2.29,4.1a1.45,1.45,0,0,0,0-2.17,2.16,2.16,0,0,0-1.32-.36h-3v2.89h3A1.93,1.93,0,0,0,251.7,79.18Zm.36,5.43a1.48,1.48,0,0,0,.61-1.21,1.25,1.25,0,0,0-.61-1.08,3.08,3.08,0,0,0-1.68-.37h-3v3.14h3A4.7,4.7,0,0,0,252.06,84.61Z" transform="translate(-0.57 -1.26)"/><path class="cls-1" d="M265.57,78.58a5.82,5.82,0,0,1,1.33,4v.72h-7.36a2.12,2.12,0,0,0,1,1.45,2.77,2.77,0,0,0,1.69.48,4.31,4.31,0,0,0,1.32-.24,4.06,4.06,0,0,0,1.21-.85l1.57,1.57A4.24,4.24,0,0,1,264.37,87a5.44,5.44,0,0,1-2.41.48,6.35,6.35,0,0,1-2.78-.6,4.38,4.38,0,0,1-1.81-1.81,4.81,4.81,0,0,1-.6-2.65,6.76,6.76,0,0,1,.6-2.78,3.79,3.79,0,0,1,1.81-1.81,5.28,5.28,0,0,1,2.78-.6A4.24,4.24,0,0,1,265.57,78.58Zm-1.44,3a2.08,2.08,0,0,0-.61-1.57,2.34,2.34,0,0,0-3.13,0,2.57,2.57,0,0,0-.85,1.57Z" transform="translate(-0.57 -1.26)"/><path class="cls-1" d="M277,79.54a8.86,8.86,0,0,0-1.44-.24,1.74,1.74,0,0,0-.85.24.66.66,0,0,0-.36.6.62.62,0,0,0,.48.61,4.93,4.93,0,0,0,1.45.48c.72.24,1.33.48,1.81.6a3.18,3.18,0,0,1,1.21,1,2.22,2.22,0,0,1,.48,1.57,2.8,2.8,0,0,1-1.21,2.41,4.71,4.71,0,0,1-3,.84,7.87,7.87,0,0,1-2.42-.36,6.84,6.84,0,0,1-2.05-1.08l1-1.93a7.5,7.5,0,0,0,1.69,1,4.83,4.83,0,0,0,1.81.36,2.26,2.26,0,0,0,1-.24.66.66,0,0,0,.36-.6.89.89,0,0,0-.48-.73,4.82,4.82,0,0,0-1.45-.48,9,9,0,0,1-1.69-.6,3,3,0,0,1-1.2-1,2.21,2.21,0,0,1-.48-1.56,2.67,2.67,0,0,1,1.08-2.3,4.37,4.37,0,0,1,2.9-.84,10.77,10.77,0,0,1,2.05.24,9.62,9.62,0,0,1,1.93.84l-1,1.93A3.7,3.7,0,0,0,277,79.54Z" transform="translate(-0.57 -1.26)"/><path class="cls-1" d="M289.34,78.58a5.87,5.87,0,0,1,1.32,4v.72h-7.35a2.11,2.11,0,0,0,1,1.45,2.78,2.78,0,0,0,1.69.48,4.44,4.44,0,0,0,1.33-.24,4.14,4.14,0,0,0,1.2-.85l1.57,1.57A4.24,4.24,0,0,1,288.13,87a5.42,5.42,0,0,1-2.41.48,6.35,6.35,0,0,1-2.78-.6,4.44,4.44,0,0,1-1.81-1.81,4.81,4.81,0,0,1-.6-2.65,6.76,6.76,0,0,1,.6-2.78,4.43,4.43,0,0,1,1.81-1.81,5.28,5.28,0,0,1,2.78-.6A4.26,4.26,0,0,1,289.34,78.58Zm-1.57,3a2.11,2.11,0,0,0-.6-1.57,2.33,2.33,0,0,0-1.57-.6A2.29,2.29,0,0,0,284,80a2.56,2.56,0,0,0-.84,1.57Z" transform="translate(-0.57 -1.26)"/><path class="cls-1" d="M296.57,79.66a2.41,2.41,0,0,0-1.8.73,2.7,2.7,0,0,0-.73,1.93,3,3,0,0,0,.73,2.05,2.37,2.37,0,0,0,1.68.72,2.69,2.69,0,0,0,2.42-1.21l2.05,1.33a4.94,4.94,0,0,1-1.81,1.69,6.35,6.35,0,0,1-2.78.6,6.15,6.15,0,0,1-2.65-.6,5.22,5.22,0,0,1-1.81-1.81,4.81,4.81,0,0,1-.6-2.65,6.76,6.76,0,0,1,.6-2.78,3.79,3.79,0,0,1,1.81-1.81,6.3,6.3,0,0,1,2.77-.6,6.63,6.63,0,0,1,2.66.6,4.61,4.61,0,0,1,1.81,1.57L299,80.87A3.14,3.14,0,0,0,296.57,79.66Z" transform="translate(-0.57 -1.26)"/><path class="cls-1" d="M311.65,77.25V87.38h-2.89V85.57a3.51,3.51,0,0,1-3.38,1.93,3.36,3.36,0,0,1-2.65-1.08,4.39,4.39,0,0,1-1-2.9V77.13h2.9v5.55a2.25,2.25,0,0,0,.48,1.57,2,2,0,0,0,1.45.6,2.15,2.15,0,0,0,1.68-.73,2.89,2.89,0,0,0,.61-1.8V77.25Z" transform="translate(-0.57 -1.26)"/><path class="cls-1" d="M317.92,77.73a3.58,3.58,0,0,1,1.93-.48V80h-.48a3.33,3.33,0,0,0-2.17.73,2.62,2.62,0,0,0-.84,1.93v4.94h-2.9V77.49h2.9V79.3A4.76,4.76,0,0,1,317.92,77.73Z" transform="translate(-0.57 -1.26)"/><path class="cls-1" d="M329.14,78.58a5.82,5.82,0,0,1,1.33,4v.72h-7.36a2.09,2.09,0,0,0,1,1.45,2.77,2.77,0,0,0,1.69.48,4.31,4.31,0,0,0,1.32-.24,4.19,4.19,0,0,0,1.21-.85l1.57,1.57A4.29,4.29,0,0,1,327.94,87a5.46,5.46,0,0,1-2.42.48,6.3,6.3,0,0,1-2.77-.6,4.38,4.38,0,0,1-1.81-1.81,4.81,4.81,0,0,1-.6-2.65,6.76,6.76,0,0,1,.6-2.78,3.79,3.79,0,0,1,1.81-1.81,5.24,5.24,0,0,1,2.77-.6A4.12,4.12,0,0,1,329.14,78.58Zm-1.44,3a2.12,2.12,0,0,0-.61-1.57A2.34,2.34,0,0,0,324,80a2.52,2.52,0,0,0-.85,1.57Z" transform="translate(-0.57 -1.26)"/><path class="cls-1" d="M333.49,85.09a1.82,1.82,0,0,1,0,2.17,1.57,1.57,0,0,1-1.09.48,1.5,1.5,0,0,1-1.09-.48,1.82,1.82,0,0,1,0-2.17,1.51,1.51,0,0,1,1.09-.36A.93.93,0,0,1,333.49,85.09Z" transform="translate(-0.57 -1.26)"/><path class="cls-1" d="M116.85,44.68a14,14,0,0,1-20.51,0,14.93,14.93,0,0,1-4.1-10.25,14.51,14.51,0,0,1,4.1-10.25,14.2,14.2,0,0,1,10.25-4.35,14.45,14.45,0,0,1,10.26,4.35A14.72,14.72,0,0,1,121,34.43a14.93,14.93,0,0,1-4.1,10.25M106.59,13.56a20.9,20.9,0,0,0-14.83,6.15,20.63,20.63,0,0,0-6.15,14.72,21,21,0,1,0,42,0,20.63,20.63,0,0,0-6.15-14.72,20.91,20.91,0,0,0-14.84-6.15" transform="translate(-0.57 -1.26)"/><path class="cls-1" d="M147.61,23.21a13.86,13.86,0,0,0-9.53,3.5v-3h-5.55V54.57h5.55V38.17q0-4.89,2.53-7.24c1.57-1.57,4-2.29,6.88-2.29,4.82,0,7.35,2.77,7.35,8.44V54.69h5.55V37.08c.12-9.65-3.74-13.87-12.78-13.87" transform="translate(-0.57 -1.26)"/><path class="cls-1" d="M182.22,28.64a10.57,10.57,0,0,1,10.14,7.84H172.21a10.22,10.22,0,0,1,10-7.84m0-5.31a16,16,0,0,0-16.16,15.92,16.3,16.3,0,0,0,16.16,16,16.14,16.14,0,0,0,14.48-8.93l.36-.6h-6.63l-.12.12a10.19,10.19,0,0,1-8.09,4,10.66,10.66,0,0,1-10.13-8.08h26.3V39.25a16.12,16.12,0,0,0-16.17-15.92" transform="translate(-0.57 -1.26)"/><path class="cls-1" d="M254.6,50.71A11.89,11.89,0,0,1,243,39.25,11.62,11.62,0,0,1,254.6,27.91a11.13,11.13,0,0,1,11.1,11.34,11.3,11.3,0,0,1-11.1,11.46m-.12-27.5a15.11,15.11,0,0,0-11.7,5.55V23.69h-4.71V68.56h4.71V49.63a15.25,15.25,0,0,0,11.7,5.67,16.38,16.38,0,0,0,16.16-16,16.14,16.14,0,0,0-16.16-16" transform="translate(-0.57 -1.26)"/><path class="cls-1" d="M289.34,50.71a11.38,11.38,0,0,1-11.1-11.46,11,11,0,0,1,11.1-11.34,11.62,11.62,0,0,1,11.58,11.34c.12,6-5.43,11.46-11.58,11.46m11.94-21.95a15.39,15.39,0,0,0-11.82-5.55,16.2,16.2,0,0,0-16.17,15.92A16.49,16.49,0,0,0,289.46,55.3a15.72,15.72,0,0,0,11.82-5.67v5.06H306v-31h-4.7Z" transform="translate(-0.57 -1.26)"/><path class="cls-1" d="M325.77,23.21a13.82,13.82,0,0,0-10.26,4.22V23.69h-4.82V54.57h4.7V38.17c0-7,3.86-10.5,10.25-10.38,5.19,0,8.09,3,8.09,9.17V54.57h4.7V37c.12-9.77-3.74-13.75-12.66-13.75" transform="translate(-0.57 -1.26)"/><path class="cls-1" d="M219,31.05c-7-1.33-9.89-3.26-9.89-6.51s3.74-5.79,8.93-5.79c4.7,0,8.08,1.93,8.93,4.82H232c-.84-6.15-6.27-10-14-10-8.57,0-14,4.34-14,11,0,6.27,4.22,9.77,14.11,11.7,7.36,1.44,10.49,2.77,10.49,7.11,0,4-4.34,6.76-10.61,6.76-5.19,0-9.77-2.78-10.49-6.39h-5.07c.6,7,6.75,11.58,15.56,11.58,9.65,0,15.68-4.59,15.68-11.95-.12-6.63-4.34-10.25-14.72-12.3" transform="translate(-0.57 -1.26)"/></svg>